# xmcd
#
# Track frame offsets: 
#        150
#        14563
#        35509
#        54124
#        70193
#        86849
#        104108
#        126886
#        147679
#        161453
#        174176
#        187028
#        204092
#
# Disc length: 2939 seconds
#
# Revision: 0
# Processed by: cddbd v1.5.2PL0 Copyright (c) Steve Scherf et al.
# Submitted via: ExactAudioCopy v0.95b3
#
DISCID=b60b790d
DTITLE=Carole King  - Writer (+1)  (1970)  FLAC
DYEAR=1900
DGENRE=
TTITLE0=Spaceship Races
TTITLE1=No Easy Way Down
TTITLE2=Child Of Mine
TTITLE3=Goin' Back
TTITLE4=To Love
TTITLE5=What Have You Got To Lose
TTITLE6=Eventually
TTITLE7=Raspberry Jam
TTITLE8=Can't You Be Real
TTITLE9=I Can't Hear You No More
TTITLE10=Sweet Sweetheart
TTITLE11=Up On The Roof
TTITLE12=To Love (alternate take)
EXTD=
EXTT0=
EXTT1=
EXTT2=
EXTT3=
EXTT4=
EXTT5=
EXTT6=
EXTT7=
EXTT8=
EXTT9=
EXTT10=
EXTT11=
EXTT12=
PLAYORDER=
